<?xml version="1.0" encoding="UTF-8" standalone="no"?>
<!-- Generator: Adobe Illustrator 17.1.0, SVG Export Plug-In . SVG Version: 6.00 Build 0)  -->

<svg
   xmlns:dc="http://purl.org/dc/elements/1.1/"
   xmlns:cc="http://creativecommons.org/ns#"
   xmlns:rdf="http://www.w3.org/1999/02/22-rdf-syntax-ns#"
   xmlns:svg="http://www.w3.org/2000/svg"
   xmlns="http://www.w3.org/2000/svg"
   xmlns:sodipodi="http://sodipodi.sourceforge.net/DTD/sodipodi-0.dtd"
   xmlns:inkscape="http://www.inkscape.org/namespaces/inkscape"
   version="1.1"
   id="Layer_2"
   x="0px"
   y="0px"
   viewBox="0 0 1178.1003 1714.9"
   enable-background="new 0 0 5000 5000"
   xml:space="preserve"
   inkscape:version="0.48.4 r9939"
   width="100%"
   height="100%"
   sodipodi:docname="iPad 1.svg"><metadata
     id="metadata25"><rdf:RDF><cc:Work
         rdf:about=""><dc:format>image/svg+xml</dc:format><dc:type
           rdf:resource="http://purl.org/dc/dcmitype/StillImage" /><dc:title></dc:title></cc:Work></rdf:RDF></metadata><defs
     id="defs23" /><sodipodi:namedview
     pagecolor="#ffffff"
     bordercolor="#666666"
     borderopacity="1"
     objecttolerance="10"
     gridtolerance="10"
     guidetolerance="10"
     inkscape:pageopacity="0"
     inkscape:pageshadow="2"
     inkscape:window-width="1920"
     inkscape:window-height="1056"
     id="namedview21"
     showgrid="false"
     inkscape:zoom="0.3776"
     inkscape:cx="-1063.529"
     inkscape:cy="-526.98143"
     inkscape:window-x="0"
     inkscape:window-y="0"
     inkscape:window-maximized="1"
     inkscape:current-layer="Layer_2"
     fit-margin-top="0"
     fit-margin-left="0"
     fit-margin-right="0"
     fit-margin-bottom="0" /><path
     d="M 1114.3,1714.9 H 63.8 C 28.5,1714.9 0,1687.1 0,1652.8 V 62.1 C 0,27.8 28.6,0 63.8,0 h 1050.5 c 35.3,0 63.8,27.8 63.8,62.1 v 1590.8 c 0.1,34.2 -28.5,62 -63.8,62 z"
     id="path3"
     inkscape:connector-curvature="0"
     style="fill:#d6d6d8" /><path
     d="M 1110.9,1709.2 H 67.3 c -35,0 -63.4,-27.5 -63.4,-61.4 V 72.6 C 3.9,38.7 32.3,11.2 67.3,11.2 h 1043.6 c 35,0 63.4,27.5 63.4,61.4 v 1575.1 c 0,34 -28.4,61.5 -63.4,61.5 z"
     id="path5"
     inkscape:connector-curvature="0"
     style="fill:#ffffff" /><rect
     x="60.900024"
     y="147"
     width="1056.3"
     height="1394.1"
     id="rect7"
     style="fill:#272827" /><ellipse
     cx="2516"
     cy="1722.1"
     rx="12.1"
     ry="12.6"
     id="ellipse9"
     sodipodi:cx="2516"
     sodipodi:cy="1722.1"
     sodipodi:rx="12.1"
     sodipodi:ry="12.6"
     style="fill:#343434"
     transform="translate(-1939,-1639)" /><ellipse
     cx="2516"
     cy="3272.1001"
     rx="55.099998"
     ry="57.5"
     id="ellipse11"
     sodipodi:cx="2516"
     sodipodi:cy="3272.1001"
     sodipodi:rx="55.099998"
     sodipodi:ry="57.5"
     style="fill:#ededed"
     transform="translate(-1939,-1639)" /><ellipse
     cx="2516"
     cy="3272.1001"
     rx="48.799999"
     ry="50.900002"
     id="ellipse13"
     sodipodi:cx="2516"
     sodipodi:cy="3272.1001"
     sodipodi:rx="48.799999"
     sodipodi:ry="50.900002"
     style="fill:#dbdbdb"
     transform="translate(-1939,-1639)" /><ellipse
     cx="2516"
     cy="3272.1001"
     rx="40.099998"
     ry="41.799999"
     id="ellipse15"
     sodipodi:cx="2516"
     sodipodi:cy="3272.1001"
     sodipodi:rx="40.099998"
     sodipodi:ry="41.799999"
     style="fill:#ffffff"
     transform="translate(-1939,-1639)" /></svg>